<svg xmlns="http://www.w3.org/2000/svg" width="476" height="280" viewBox="0 100 476 280" fill="none" stroke-width="17.5" stroke-linecap="round" stroke-linejoin="round">
  <!-- Silver (2nd place, left) -->
  <polyline points="10,370 10,200 152,200" stroke="#aaa" fill="none"/>
  <!-- Gold (1st place, center) -->
  <polyline points="152,200 152,112 316,112 316,238" stroke="#c8960c" fill="none"/>
  <!-- Bronze (3rd place, right) -->
  <polyline points="316,238 465,238 465,370" stroke="#a0522d" fill="none"/>
  <!-- Base line -->
  <line x1="10" y1="370" x2="465" y2="370" stroke="#888" stroke-width="17.5"/>
  <!-- Numbers -->
  <path fill="#aaa" stroke="none" d="M112.476,285.919c-4.804,0-9.6,0.051-14.394,0.157c8.163-8.282,14.254-18.448,15.138-29.854c1.991-25.755-32.042-21.235-47.017-16.818c-9.625,2.834-5.527,17.891,4.148,15.041c5.33-1.574,29.597-9.343,27.025,3.413c-2.709,13.426-16.547,23.998-27.835,29.995c-2.471,1.311-3.61,3.296-3.829,5.383c-1.678,4.783,0.584,10.761,6.896,10.019c13.253-1.548,26.535-1.731,39.867-1.731C122.538,301.519,122.538,285.919,112.476,285.919z"/>
  <path fill="#c8960c" stroke="none" d="M243.48,134.334c-0.825,0.165-1.633,0.457-2.344,0.987c-7.81,5.819-15.861,11.314-23.244,17.685c-7.627,6.583,3.453,17.564,11.029,11.029c3.187-2.75,6.52-5.299,9.899-7.795c-0.229,18.382-0.63,36.762-0.681,55.145c-0.025,10.062,15.577,10.057,15.603,0c0.061-23.404,0.802-46.794,0.868-70.198C254.625,134.672,248.101,132.404,243.48,134.334z"/>
  <path fill="#a0522d" stroke="none" d="M373.319,288.661c5.397-1.138,10.785-2.097,16.274-2.574c2.691-0.239,5.81-0.29,8.293-0.076c-1.849,2.473-4.276,4.672-6.617,6.692c-1.533,0.178-3.017,0.873-4.296,2.234c-2.706,2.904-3.188,8.663,0,11.477c4.611,4.082,9.217,8.43,12.294,13.989c0.264,0.493,0.503,0.99,0.736,1.498c0.041,0.122,0.066,0.214,0.173,0.519c0.046,0.162,0.081,0.335,0.122,0.502c-0.082,0.021-0.117,0.031-0.152,0.041c-0.285,0.021-0.569,0.051-0.858,0.056c-2.311,0.112-3.428-0.203-5.946-0.889c-6.586-1.787-12.578-5.57-18.215-9.526c-8.19-5.753-15.768,8.303-7.638,14.016c11.004,7.733,31.316,19.565,43.646,8.201c10.456-9.644,1.818-23.704-6.683-33.139c8.079-8.161,16.188-20.125,4.769-28.854c-4.397-3.356-11.167-3.301-16.296-3.164c-7.916,0.214-15.873,1.722-23.627,3.357C359.725,275.032,363.788,290.672,373.319,288.661z"/>
</svg>
